<svg id="visual" viewBox="0 0 900 600" width="900" height="600" xmlns="http://www.w3.org/2000/svg" xmlns:xlink="http://www.w3.org/1999/xlink" version="1.1"><path d="M0 313L82 235L164 127L245 133L327 163L409 229L491 121L573 223L655 145L736 145L818 193L900 187L900 0L818 0L736 0L655 0L573 0L491 0L409 0L327 0L245 0L164 0L82 0L0 0Z" fill="#ffffff"></path><path d="M0 379L82 283L164 229L245 187L327 205L409 313L491 253L573 289L655 205L736 259L818 295L900 295L900 185L818 191L736 143L655 143L573 221L491 119L409 227L327 161L245 131L164 125L82 233L0 311Z" fill="#f3f7ff"></path><path d="M0 445L82 433L164 343L245 337L327 337L409 379L491 355L573 379L655 307L736 325L818 367L900 403L900 293L818 293L736 257L655 203L573 287L491 251L409 311L327 203L245 185L164 227L82 281L0 377Z" fill="#e6f0ff"></path><path d="M0 565L82 565L164 505L245 517L327 505L409 529L491 565L573 529L655 559L736 517L818 541L900 565L900 401L818 365L736 323L655 305L573 377L491 353L409 377L327 335L245 335L164 341L82 431L0 443Z" fill="#dae9ff"></path><path d="M0 601L82 601L164 601L245 601L327 601L409 601L491 601L573 601L655 601L736 601L818 601L900 601L900 563L818 539L736 515L655 557L573 527L491 563L409 527L327 503L245 515L164 503L82 563L0 563Z" fill="#cde2ff"></path></svg>