<svg xmlns="http://www.w3.org/2000/svg" xmlns:xlink="http://www.w3.org/1999/xlink" width="97.5" viewBox="0 0 97.5 37.5" height="37.5" version="1.0"><defs><g id="a"><path d="M 16.859375 -20.953125 C 15.941406 -21.441406 14.960938 -21.835938 13.921875 -22.140625 C 12.890625 -22.453125 11.914062 -22.609375 11 -22.609375 C 9.613281 -22.609375 8.515625 -22.296875 7.703125 -21.671875 C 6.890625 -21.046875 6.484375 -20.191406 6.484375 -19.109375 C 6.484375 -18.054688 6.957031 -17.191406 7.90625 -16.515625 C 8.863281 -15.847656 10.222656 -15.1875 11.984375 -14.53125 C 13.304688 -14.0625 14.421875 -13.550781 15.328125 -13 C 16.234375 -12.445312 16.984375 -11.679688 17.578125 -10.703125 C 18.179688 -9.722656 18.484375 -8.484375 18.484375 -6.984375 C 18.484375 -5.617188 18.140625 -4.382812 17.453125 -3.28125 C 16.773438 -2.175781 15.804688 -1.304688 14.546875 -0.671875 C 13.285156 -0.0351562 11.8125 0.28125 10.125 0.28125 C 8.550781 0.28125 7.035156 0.03125 5.578125 -0.46875 C 4.117188 -0.976562 2.835938 -1.617188 1.734375 -2.390625 L 3.25 -5.109375 C 4.113281 -4.453125 5.15625 -3.894531 6.375 -3.4375 C 7.601562 -2.976562 8.742188 -2.75 9.796875 -2.75 C 11.160156 -2.75 12.351562 -3.097656 13.375 -3.796875 C 14.40625 -4.503906 14.921875 -5.554688 14.921875 -6.953125 C 14.921875 -8.117188 14.488281 -9.050781 13.625 -9.75 C 12.769531 -10.445312 11.566406 -11.097656 10.015625 -11.703125 C 8.578125 -12.242188 7.378906 -12.773438 6.421875 -13.296875 C 5.472656 -13.816406 4.660156 -14.523438 3.984375 -15.421875 C 3.304688 -16.328125 2.96875 -17.460938 2.96875 -18.828125 C 2.96875 -20.828125 3.664062 -22.441406 5.0625 -23.671875 C 6.457031 -24.910156 8.273438 -25.566406 10.515625 -25.640625 C 13.265625 -25.640625 15.8125 -24.957031 18.15625 -23.59375 Z M 16.859375 -20.953125"/></g><g id="b"><path d="M 12.09375 -15.203125 C 13.457031 -15.203125 14.691406 -14.867188 15.796875 -14.203125 C 16.898438 -13.546875 17.769531 -12.625 18.40625 -11.4375 C 19.039062 -10.25 19.359375 -8.878906 19.359375 -7.328125 C 19.359375 -5.804688 19.015625 -4.460938 18.328125 -3.296875 C 17.648438 -2.128906 16.710938 -1.226562 15.515625 -0.59375 C 14.316406 0.0390625 12.976562 0.359375 11.5 0.359375 C 10.4375 0.359375 9.421875 0.128906 8.453125 -0.328125 C 7.492188 -0.785156 6.722656 -1.40625 6.140625 -2.1875 L 6.140625 7.015625 L 2.859375 7.015625 L 2.859375 -14.84375 L 5.71875 -14.84375 L 6 -12.375 C 6.75 -13.21875 7.644531 -13.898438 8.6875 -14.421875 C 9.738281 -14.941406 10.875 -15.203125 12.09375 -15.203125 Z M 10.859375 -2.296875 C 11.773438 -2.296875 12.625 -2.507812 13.40625 -2.9375 C 14.195312 -3.375 14.828125 -3.972656 15.296875 -4.734375 C 15.773438 -5.503906 16.015625 -6.359375 16.015625 -7.296875 C 16.015625 -8.265625 15.796875 -9.132812 15.359375 -9.90625 C 14.921875 -10.6875 14.328125 -11.296875 13.578125 -11.734375 C 12.828125 -12.179688 11.992188 -12.40625 11.078125 -12.40625 C 9.828125 -12.40625 8.757812 -12.054688 7.875 -11.359375 C 7 -10.671875 6.421875 -9.738281 6.140625 -8.5625 L 6.140625 -6.140625 C 6.328125 -5.003906 6.859375 -4.078125 7.734375 -3.359375 C 8.617188 -2.648438 9.660156 -2.296875 10.859375 -2.296875 Z M 10.859375 -2.296875"/></g><g id="c"><path d="M 17.84375 -14.59375 L 17.84375 0 L 14.5625 0 L 14.5625 -2.390625 C 14.039062 -1.710938 13.285156 -1.082031 12.296875 -0.5 C 11.316406 0.0703125 10.203125 0.359375 8.953125 0.359375 C 7.566406 0.359375 6.316406 0.0546875 5.203125 -0.546875 C 4.085938 -1.148438 3.207031 -2.023438 2.5625 -3.171875 C 1.914062 -4.328125 1.59375 -5.703125 1.59375 -7.296875 C 1.59375 -8.898438 1.925781 -10.296875 2.59375 -11.484375 C 3.257812 -12.671875 4.160156 -13.585938 5.296875 -14.234375 C 6.441406 -14.878906 7.707031 -15.203125 9.09375 -15.203125 C 10.34375 -15.203125 11.425781 -14.929688 12.34375 -14.390625 C 13.257812 -13.847656 14 -13.140625 14.5625 -12.265625 L 14.8125 -14.59375 Z M 9.84375 -2.359375 C 11.039062 -2.359375 12.066406 -2.691406 12.921875 -3.359375 C 13.785156 -4.035156 14.332031 -4.945312 14.5625 -6.09375 L 14.5625 -9 C 14.28125 -10.03125 13.691406 -10.867188 12.796875 -11.515625 C 11.910156 -12.160156 10.890625 -12.484375 9.734375 -12.484375 C 8.859375 -12.484375 8.050781 -12.269531 7.3125 -11.84375 C 6.570312 -11.425781 5.984375 -10.832031 5.546875 -10.0625 C 5.117188 -9.300781 4.90625 -8.4375 4.90625 -7.46875 C 4.90625 -6.53125 5.125 -5.671875 5.5625 -4.890625 C 6.007812 -4.117188 6.609375 -3.503906 7.359375 -3.046875 C 8.117188 -2.585938 8.945312 -2.359375 9.84375 -2.359375 Z M 9.84375 -2.359375"/></g><g id="d"><path d="M 14.703125 -1.375 C 14.046875 -0.832031 13.265625 -0.40625 12.359375 -0.09375 C 11.453125 0.207031 10.53125 0.359375 9.59375 0.359375 C 8.019531 0.359375 6.625 0.0390625 5.40625 -0.59375 C 4.195312 -1.226562 3.257812 -2.128906 2.59375 -3.296875 C 1.925781 -4.460938 1.59375 -5.804688 1.59375 -7.328125 C 1.59375 -8.835938 1.941406 -10.171875 2.640625 -11.328125 C 3.347656 -12.492188 4.289062 -13.394531 5.46875 -14.03125 C 6.644531 -14.664062 7.914062 -14.984375 9.28125 -14.984375 C 11.507812 -14.984375 13.351562 -14.375 14.8125 -13.15625 L 13.15625 -11 C 12.6875 -11.351562 12.144531 -11.648438 11.53125 -11.890625 C 10.914062 -12.140625 10.257812 -12.265625 9.5625 -12.265625 C 8.6875 -12.265625 7.890625 -12.046875 7.171875 -11.609375 C 6.453125 -11.179688 5.882812 -10.585938 5.46875 -9.828125 C 5.0625 -9.078125 4.859375 -8.242188 4.859375 -7.328125 C 4.859375 -6.410156 5.078125 -5.578125 5.515625 -4.828125 C 5.953125 -4.078125 6.546875 -3.476562 7.296875 -3.03125 C 8.046875 -2.582031 8.90625 -2.359375 9.875 -2.359375 C 11.070312 -2.359375 12.117188 -2.710938 13.015625 -3.421875 Z M 14.703125 -1.375"/></g><g id="e"><path d="M 9.703125 -2.46875 C 10.921875 -2.46875 12.109375 -2.890625 13.265625 -3.734375 L 14.78125 -1.3125 C 14 -0.789062 13.15625 -0.378906 12.25 -0.078125 C 11.34375 0.210938 10.46875 0.359375 9.625 0.359375 C 8 0.359375 6.582031 0.0234375 5.375 -0.640625 C 4.164062 -1.316406 3.234375 -2.242188 2.578125 -3.421875 C 1.921875 -4.597656 1.59375 -5.925781 1.59375 -7.40625 C 1.59375 -8.84375 1.945312 -10.15625 2.65625 -11.34375 C 3.375 -12.53125 4.351562 -13.46875 5.59375 -14.15625 C 6.84375 -14.851562 8.210938 -15.203125 9.703125 -15.203125 C 11.597656 -15.203125 13.1875 -14.640625 14.46875 -13.515625 C 15.757812 -12.398438 16.640625 -10.847656 17.109375 -8.859375 L 5.53125 -4.796875 C 5.957031 -4.066406 6.53125 -3.492188 7.25 -3.078125 C 7.96875 -2.671875 8.785156 -2.46875 9.703125 -2.46875 Z M 9.453125 -12.59375 C 8.109375 -12.59375 7 -12.117188 6.125 -11.171875 C 5.257812 -10.234375 4.828125 -9.035156 4.828125 -7.578125 C 4.828125 -7.222656 4.835938 -6.953125 4.859375 -6.765625 L 13.359375 -9.90625 C 13.015625 -10.707031 12.515625 -11.351562 11.859375 -11.84375 C 11.210938 -12.34375 10.410156 -12.59375 9.453125 -12.59375 Z M 9.453125 -12.59375"/></g><clipPath id="f"><path d="M 96 28 L 96.613281 28 L 96.613281 29 L 96 29 Z M 96 28"/></clipPath></defs><g fill="#FFF"><use x=".395" y="28.908" xmlns:xlink="http://www.w3.org/1999/xlink" xlink:href="#a" xlink:type="simple" xlink:actuate="onLoad" xlink:show="embed"/></g><g fill="#FFF"><use x="20.92" y="28.908" xmlns:xlink="http://www.w3.org/1999/xlink" xlink:href="#b" xlink:type="simple" xlink:actuate="onLoad" xlink:show="embed"/></g><g fill="#FFF"><use x="41.833" y="28.908" xmlns:xlink="http://www.w3.org/1999/xlink" xlink:href="#c" xlink:type="simple" xlink:actuate="onLoad" xlink:show="embed"/></g><g fill="#FFF"><use x="62.535" y="28.908" xmlns:xlink="http://www.w3.org/1999/xlink" xlink:href="#d" xlink:type="simple" xlink:actuate="onLoad" xlink:show="embed"/></g><g fill="#FFF"><use x="78.616" y="28.908" xmlns:xlink="http://www.w3.org/1999/xlink" xlink:href="#e" xlink:type="simple" xlink:actuate="onLoad" xlink:show="embed"/></g><g clip-path="url(#f)"><g fill="#FFF"><use x="96.954" y="28.908" xmlns:xlink="http://www.w3.org/1999/xlink" xlink:href="#g" xlink:type="simple" xlink:actuate="onLoad" xlink:show="embed"/></g></g></svg>