<?xml version='1.0' encoding='utf-8'?>
<svg xmlns="http://www.w3.org/2000/svg" width="91.44mm" height="91.44mm" version="1.1" style="shape-rendering:geometricPrecision; text-rendering:geometricPrecision; image-rendering:optimizeQuality; fill-rule:evenodd; clip-rule:evenodd" viewBox="0 0 170.49 170.49"> <defs> <style type="text/css">  .fil0 {fill:#F0F0F0} .fil1 {fill:#011627;fill-rule:nonzero}  </style> </defs> <g id="Camada_x0020_1"> <metadata id="CorelCorpID_0Corel-Layer"/> <polygon class="fil0" points="-0,0 170.49,0 170.49,170.49 -0,170.49 "/> <path class="fil1" d="M85.25 46.38c5.58,0 10.64,2.26 14.3,5.93 3.66,3.66 5.92,8.72 5.92,14.3 0,5.58 -2.26,10.64 -5.92,14.3 -3.66,3.66 -8.72,5.92 -14.3,5.92 -5.58,0 -10.64,-2.26 -14.3,-5.92 -3.66,-3.66 -5.92,-8.72 -5.92,-14.3 0,-5.58 2.26,-10.64 5.92,-14.3 3.66,-3.66 8.72,-5.93 14.3,-5.93zm15.82 45.26c-0.72,-0.48 -0.92,-1.46 -0.43,-2.18 0.48,-0.72 1.46,-0.91 2.18,-0.43 4.33,2.9 7.91,6.84 10.38,11.46 2.39,4.45 3.74,9.52 3.74,14.88l0 7.17c0,0.87 -0.71,1.58 -1.58,1.58l-60.24 0c-0.87,0 -1.58,-0.71 -1.58,-1.58l0 -7.17c0,-5.39 1.37,-10.49 3.78,-14.95 2.5,-4.63 6.11,-8.58 10.47,-11.47 0.73,-0.48 1.7,-0.28 2.18,0.44 0.48,0.73 0.28,1.7 -0.44,2.18 -3.93,2.61 -7.19,6.17 -9.44,10.34 -2.16,4.01 -3.39,8.6 -3.39,13.46l0 5.59 57.08 0 0 -5.59c0,-4.84 -1.22,-9.41 -3.36,-13.4 -2.23,-4.16 -5.46,-7.71 -9.36,-10.32zm-3.75 -37.11c-3.09,-3.08 -7.36,-5 -12.07,-5 -4.71,0 -8.98,1.91 -12.07,5 -3.09,3.09 -5,7.35 -5,12.07 0,4.71 1.91,8.98 5,12.07 3.09,3.09 7.35,5 12.07,5 4.71,0 8.98,-1.91 12.07,-5 3.09,-3.09 5,-7.36 5,-12.07 0,-4.71 -1.91,-8.98 -5,-12.07z"/> </g> </svg>