<?xml version="1.0" encoding="UTF-8"?>
<svg width="91.44mm" height="91.44mm" clip-rule="evenodd" fill-rule="evenodd" image-rendering="optimizeQuality" shape-rendering="geometricPrecision" text-rendering="geometricPrecision" version="1.1" viewBox="0 0 9144 9144" xmlns="http://www.w3.org/2000/svg">
 <defs>
  <style type="text/css">.fil0 {fill:#36BC9B} .fil3 {fill:white;fill-rule:nonzero} .fil1 {fill:#36BC9B;fill-opacity:0.501961} .fil2 {fill:url(#a)}</style>
  <linearGradient id="a" x1="10043" x2="-898.9" y1="6303" y2="2841" gradientUnits="userSpaceOnUse">
   <stop stop-color="#48CFAE" offset="0"/>
   <stop stop-color="#4FC0E8" offset="1"/>
  </linearGradient>
 </defs>
 <rect class="fil0" x="8882" y="7755" width="16.93" height="16.94"/>
 <polygon class="fil1" points="8882 7755 8873 7755 8873 7772 8882 7772"/>
 <polygon class="fil1" points="8907 7755 8898 7755 8898 7772 8907 7772"/>
 <polygon class="fil1" points="8882 7772 8882 7781 8898 7781 8898 7772"/>
 <polygon class="fil1" points="8882 7747 8882 7755 8898 7755 8898 7747"/>
 <rect class="fil0" x="8882" y="7696" width="16.93" height="16.94"/>
 <rect class="fil0" x="8865" y="7705" width="16.93" height="16.94"/>
 <rect class="fil0" x="8848" y="7713" width="16.93" height="16.94"/>
 <rect class="fil0" x="8898" y="7705" width="16.93" height="16.94"/>
 <rect class="fil0" x="8915" y="7713" width="16.93" height="16.94"/>
 <rect class="fil0" x="8882" y="7645" width="16.93" height="16.94"/>
 <rect class="fil0" x="8865" y="7654" width="16.93" height="16.94"/>
 <rect class="fil0" x="8848" y="7662" width="16.93" height="16.94"/>
 <rect class="fil0" x="8898" y="7654" width="16.93" height="16.94"/>
 <rect class="fil0" x="8915" y="7662" width="16.93" height="16.94"/>
 <rect class="fil0" x="8932" y="7671" width="16.93" height="16.94"/>
 <rect class="fil0" x="8831" y="7671" width="16.93" height="16.94"/>
 <polygon class="fil2" points="0 0 9144 0 9144 9144 0 9144"/>
 <path class="fil3" d="m5304 6777h-2849c-48 0-88-39-88-88 0-563 54-901 312-1159 243-244 660-399 1383-595v-158c-241-125-422-425-506-772-52-214-68-448-38-669 30-225 108-438 242-608 173-218 438-361 812-361s639 143 812 361c134 170 212 383 242 608 30 221 14 455-38 669-84 347-265 647-506 772v158c723 196 1140 351 1383 595 258 258 312 596 312 1159 0 49-40 88-88 88h-1385zm-2760-176h4056c-5-462-57-745-260-947-222-223-634-370-1364-566-40-8-70-43-70-86v-281c0-35 21-69 56-82 212-83 377-354 455-675 47-194 62-405 35-605-26-195-92-378-206-521-141-178-360-295-674-295s-533 117-674 295c-114 143-180 326-206 521-27 200-12 411 35 605 77 319 241 588 451 673 35 12 60 45 60 84v281c0 39-26 75-65 85-733 197-1146 344-1369 567-203 202-255 485-260 947z"/>
</svg>
