<?xml version="1.0" encoding="utf-8"?>
<!-- Generator: Adobe Illustrator 25.0.1, SVG Export Plug-In . SVG Version: 6.00 Build 0)  -->
<svg version="1.1" id="Layer_1" xmlns="http://www.w3.org/2000/svg" xmlns:xlink="http://www.w3.org/1999/xlink" x="0px" y="0px"
	 viewBox="0 0 259.2 259.2" style="enable-background:new 0 0 259.2 259.2;" xml:space="preserve">
<style type="text/css">
	.st0{fill-rule:evenodd;clip-rule:evenodd;fill:url(#SVGID_1_);}
	.st1{fill:#FFFFFF;}
</style>
<g id="Camada_x0020_1">
	
		<linearGradient id="SVGID_1_" gradientUnits="userSpaceOnUse" x1="6.5975" y1="378.4711" x2="-116.4711" y2="255.4025" gradientTransform="matrix(1.8593 0 0 -1.8593 231.1421 718.2692)">
		<stop  offset="0" style="stop-color:#EC268F"/>
		<stop  offset="1" style="stop-color:#F58634"/>
	</linearGradient>
	<polygon class="st0" points="-1,259 259,259 259,-1 -1,-1 	"/>
	<path class="st1" d="M129,69.7c8.5,0,16.2,3.5,21.8,9c5.6,5.6,9,13.3,9,21.8c0,8.5-3.5,16.2-9,21.8c-5.6,5.6-13.3,9-21.8,9
		c-8.5,0-16.2-3.5-21.8-9c-5.6-5.6-9-13.3-9-21.8s3.5-16.2,9-21.8C112.8,73.2,120.5,69.7,129,69.7z M153.1,138.7
		c-1.1-0.7-1.4-2.2-0.7-3.3c0.7-1.1,2.2-1.4,3.3-0.7c6.6,4.4,12.1,10.4,15.8,17.5c3.6,6.8,5.7,14.5,5.7,22.7v10.9
		c0,1.3-1.1,2.4-2.4,2.4H83.1c-1.3,0-2.4-1.1-2.4-2.4v-10.9c0-8.2,2.1-16,5.8-22.8c3.8-7,9.3-13.1,16-17.5c1.1-0.7,2.6-0.4,3.3,0.7
		c0.7,1.1,0.4,2.6-0.7,3.3c-6,4-11,9.4-14.4,15.8c-3.3,6.1-5.2,13.1-5.2,20.5v8.5h87v-8.5c0-7.4-1.8-14.3-5.1-20.4
		C164,148.1,159.1,142.7,153.1,138.7L153.1,138.7z M147.4,82.2c-4.7-4.7-11.2-7.6-18.4-7.6c-7.2,0-13.7,2.9-18.4,7.6
		s-7.6,11.2-7.6,18.4c0,7.2,2.9,13.7,7.6,18.4c4.7,4.7,11.2,7.6,18.4,7.6c7.2,0,13.7-2.9,18.4-7.6c4.7-4.7,7.6-11.2,7.6-18.4
		C155,93.4,152.1,86.9,147.4,82.2L147.4,82.2z"/>
</g>
</svg>
