<?xml version='1.0' encoding='utf-8'?>
<svg xmlns="http://www.w3.org/2000/svg" viewBox="0 0 500 500"><defs><style>.a{isolation:isolate;}.b{fill:#46cad1;}.c{fill:#fff;}.d{fill:#e6e5e5;}.e{fill:#32373c;}.f,.h{fill:#565c5e;mix-blend-mode:screen;}.f{opacity:0.4;}.g{fill:#fa7564;}.h{opacity:0.7;}</style></defs><title>115</title><g class="a"><rect class="b" width="500" height="500"/><polygon class="c" points="248.34 409.172 243.333 409.172 240.822 283.945 250.843 283.945 248.34 409.172"/><polygon class="c" points="301.499 398.498 296.958 400.619 241.761 288.181 250.843 283.945 301.499 398.498"/><polygon class="c" points="190.167 398.498 194.708 400.619 249.904 288.181 240.822 283.945 190.167 398.498"/><rect class="d" x="174.70706" y="201.79388" width="142.25831" height="50.09202"/><rect class="c" x="174.70706" y="201.79388" width="142.25831" height="25.04263"/><rect class="e" x="159.67871" y="205.79959" width="15.02835" height="42.07384"/><rect class="f" x="159.67871" y="205.79959" width="15.02835" height="21.03692"/><rect class="g" x="76.5184" y="205.79959" width="15.02835" height="42.07384"/><rect class="h" x="76.5184" y="205.79959" width="15.02835" height="21.03692"/><rect class="d" x="91.54675" y="209.8053" width="68.13196" height="34.06918"/><rect class="c" x="91.54675" y="209.8053" width="68.13196" height="17.03441"/><rect class="e" x="331.98689" y="193.77534" width="65.1275" height="66.12198"/><rect class="f" x="331.98689" y="193.77534" width="65.1275" height="33.06117"/><rect class="g" x="316.96537" y="197.78817" width="15.02152" height="58.10344"/><rect class="h" x="316.96537" y="197.78817" width="15.02152" height="29.05154"/><path class="d" d="M397.11439,198.03848V255.6413a42.21912,42.21912,0,0,0,0-57.60282Z"/><path class="c" d="M397.11439,226.83651H408.4639a42.078,42.078,0,0,0-11.34951-28.798Z"/><rect class="e" x="215.77253" y="251.8859" width="60.11342" height="22.03852"/><rect class="e" x="228.30417" y="273.92443" width="35.06402" height="10.02104"/><path class="g" d="M263.3682,251.8859a17.532,17.532,0,1,1-17.53184-17.53183A17.52564,17.52564,0,0,1,263.3682,251.8859Z"/><path class="c" d="M253.3468,251.8859a7.51418,7.51418,0,1,1-7.51044-7.51756A7.51044,7.51044,0,0,1,253.3468,251.8859Z"/><path class="c" d="M348.25292,143.7734A19.48842,19.48842,0,0,0,328.767,163.25966a19.49153,19.49153,0,0,0-19.48982-19.48626A19.492,19.492,0,0,0,328.767,124.28393,19.48888,19.48888,0,0,0,348.25292,143.7734Z"/><path class="c" d="M403.9053,318.61319a13.81047,13.81047,0,0,0-13.81141,13.81454A13.8201,13.8201,0,0,0,376.279,318.61319a13.81463,13.81463,0,0,0,13.81489-13.80812A13.805,13.805,0,0,0,403.9053,318.61319Z"/><circle class="c" cx="421.05109" cy="165.68338" r="11.61727"/><path class="c" d="M376.279,101.644a6.64224,6.64224,0,0,0-6.64121,6.63809,6.63655,6.63655,0,0,0-6.6346-6.63809,6.63654,6.63654,0,0,0,6.6346-6.63808A6.64223,6.64223,0,0,0,376.279,101.644Z"/><path class="c" d="M268.40649,162.36238a8.29645,8.29645,0,1,1-8.29663-8.29627A8.3058,8.3058,0,0,1,268.40649,162.36238Z"/><path class="c" d="M444.77237,268.93812a6.63951,6.63951,0,1,1-6.64129-6.64165A6.642,6.642,0,0,1,444.77237,268.93812Z"/></g></svg>