<?xml version="1.0" encoding="utf-8"?>
<svg xmlns="http://www.w3.org/2000/svg" xmlns:xlink="http://www.w3.org/1999/xlink" version= "1.1" width="468px" height="335px" viewBox="218 950 468 335">
<g id="layer1">
<g style="fill:rgb(0,174,199); fill-opacity:1.0; stroke-linejoin: miter">
<path d="M217.999,949.7046C217.9209,949.7046,217.84601,949.7356,217.79079,949.79083C217.73557,949.84607,217.70453,949.9209,217.70453,949.999L217.70554,1285.0C217.70554,1285.1626,217.83737,1285.2944,218.0,1285.2944L686.001,1285.2954C686.0791,1285.2954,686.15393,1285.2644,686.20917,1285.2092C686.2644,1285.154,686.2954,1285.0791,686.2954,1285.001L686.29443,950.0C686.29443,949.8374,686.1626,949.70557,686.0,949.70557L217.999,949.7046 Z"/>
</g>
<g style="fill:rgb(0,0,0); fill-opacity:0.21960784; stroke-linejoin: miter">
<path d="M589.9749,1257.4554L588.73627,1258.3279Q579.93036,1260.9646,537.20374,1262.5453Q494.18164,1264.125,435.88068,1263.8264Q380.24005,1263.4092,346.88043,1261.3844Q336.1916,1260.73,329.2718,1259.9583L323.45587,1259.1647Q318.66302,1258.3458,318.60913,1257.4554Q320.06415,1254.7233,358.34973,1252.9092Q396.63538,1251.095,454.29205,1251.0259Q511.94867,1251.095,550.2343,1252.9089Q588.51996,1254.7233,589.9749,1257.4554"/>
</g>
<g style="fill:rgb(48,78,74); fill-opacity:1.0; stroke-linejoin: miter">
<path d="M480.78918,1162.8116C487.30847,1162.8119,492.54016,1157.1904,491.89087,1150.5403C491.32532,1144.7448,486.11487,1140.4987,480.29187,1140.4987L400.97113,1140.4988C399.81348,1140.4987,398.87512,1139.5602,398.87512,1138.4028L398.87512,1138.4031C398.87512,1137.2451,399.81348,1136.307,400.97113,1136.307L480.14667,1136.3073C488.55115,1136.3071,495.87982,1142.7837,496.13196,1151.1842C496.3927,1159.8767,489.42358,1167.0052,480.79034,1167.0052L400.97107,1167.0055C399.81342,1167.0052,398.87506,1166.0667,398.87506,1164.909L398.87506,1164.9077C398.87506,1163.7504,399.81342,1162.812,400.97107,1162.812L480.78918,1162.8124 Z"/>
</g>
<g style="fill:rgb(235,240,243); fill-opacity:1.0; stroke-linejoin: miter">
<path d="M491.89087,1150.5405C492.54034,1157.1904,487.30847,1162.812,480.78918,1162.8119L401.36884,1162.812C404.83038,1155.3741,404.83044,1147.9368,401.36884,1140.4988L480.29175,1140.499C486.11523,1140.499,491.32532,1144.7448,491.89087,1150.5405 Z"/>
</g>
<g style="fill:rgb(225,230,233); fill-opacity:1.0; stroke-linejoin: miter">
<path d="M485.04236,1145.5886L403.17395,1145.589C403.0993,1145.2936,403.00195,1144.9988,402.9167,1144.7045L485.04236,1144.7048L485.04236,1145.5886 Z"/>
</g>
<g style="fill:rgb(225,230,233); fill-opacity:1.0; stroke-linejoin: miter">
<path d="M485.04236,1148.8423L403.7989,1148.8423C403.7638,1148.5472,403.68964,1148.2522,403.6443,1147.9578L485.04236,1147.9583L485.04236,1148.8423 Z"/>
</g>
<g style="fill:rgb(225,230,233); fill-opacity:1.0; stroke-linejoin: miter">
<path d="M485.04236,1152.0977L403.93958,1152.0979C403.94525,1151.8024,403.94525,1151.5077,403.93958,1151.2133L485.04236,1151.2136L485.04236,1152.0977 Z"/>
</g>
<g style="fill:rgb(225,230,233); fill-opacity:1.0; stroke-linejoin: miter">
<path d="M485.04236,1155.353L403.6443,1155.3529C403.68958,1155.058,403.7638,1154.763,403.7989,1154.4685L485.04236,1154.469L485.04236,1155.353 Z"/>
</g>
<g style="fill:rgb(225,230,233); fill-opacity:1.0; stroke-linejoin: miter">
<path d="M485.04236,1158.6069L402.91663,1158.6067C403.00214,1158.3114,403.0993,1158.0167,403.17395,1157.7225L485.04236,1157.7229L485.04236,1158.6069 Z"/>
</g>
<g style="fill:rgb(136,70,54); fill-opacity:1.0; stroke-linejoin: miter">
<path d="M410.86542,1193.705C404.34607,1193.7051,399.1145,1188.0835,399.76373,1181.4333C400.32928,1175.6377,405.5398,1171.392,411.36273,1171.392L490.68353,1171.3923C491.84113,1171.3918,492.77954,1170.4534,492.77954,1169.2959L492.77954,1169.2963C492.77954,1168.1383,491.84113,1167.2,490.68353,1167.2L411.508,1167.2003C403.10345,1167.2003,395.77478,1173.6769,395.52264,1182.0774C395.2619,1190.77,402.23096,1197.8984,410.86426,1197.8984L490.68353,1197.8982C491.84125,1197.8982,492.77954,1196.9598,492.77954,1195.8021L492.77954,1195.8009C492.77954,1194.6434,491.84125,1193.7051,490.68353,1193.7051L410.86542,1193.7054 Z"/>
</g>
<g style="fill:rgb(235,240,243); fill-opacity:1.0; stroke-linejoin: miter">
<path d="M399.76373,1181.4336C399.11426,1188.0835,404.34607,1193.7052,410.86542,1193.7051L490.28583,1193.7054C486.82428,1186.2672,486.82422,1178.8298,490.28583,1171.392L411.36285,1171.3923C405.53937,1171.3923,400.32928,1175.6377,399.76373,1181.4336 Z"/>
</g>
<g style="fill:rgb(225,230,233); fill-opacity:1.0; stroke-linejoin: miter">
<path d="M406.6123,1176.4819L488.4807,1176.4818C488.55536,1176.1868,488.65265,1175.892,488.7379,1175.5975L406.6123,1175.598L406.6123,1176.4819 Z"/>
</g>
<g style="fill:rgb(225,230,233); fill-opacity:1.0; stroke-linejoin: miter">
<path d="M406.6123,1179.7356L487.85577,1179.7354C487.8908,1179.4404,487.96497,1179.1454,488.01038,1178.8508L406.6123,1178.8513L406.6123,1179.7356 Z"/>
</g>
<g style="fill:rgb(225,230,233); fill-opacity:1.0; stroke-linejoin: miter">
<path d="M406.6123,1182.9908L487.71515,1182.9911C487.7094,1182.6958,487.7094,1182.4008,487.71515,1182.1062L406.6123,1182.1068L406.6123,1182.9908 Z"/>
</g>
<g style="fill:rgb(225,230,233); fill-opacity:1.0; stroke-linejoin: miter">
<path d="M406.6123,1186.2462L488.01038,1186.2462C487.96503,1185.951,487.8908,1185.6559,487.85577,1185.3617L406.6123,1185.3622L406.6123,1186.2462 Z"/>
</g>
<g style="fill:rgb(225,230,233); fill-opacity:1.0; stroke-linejoin: miter">
<path d="M406.6123,1189.5001L488.73798,1189.4999C488.6524,1189.2047,488.55536,1188.9098,488.4807,1188.6156L406.6123,1188.6161L406.6123,1189.5001 Z"/>
</g>
<g style="fill:rgb(83,93,102); fill-opacity:1.0; stroke-linejoin: miter">
<path d="M411.77032,1224.0981C405.25104,1224.0984,400.01935,1218.4768,400.66864,1211.8267C401.2342,1206.0312,406.44464,1201.7852,412.26764,1201.7852L491.58844,1201.7852C492.74603,1201.785,493.68445,1200.8467,493.68445,1199.6892L493.68445,1199.6895C493.68445,1198.5316,492.74603,1197.5934,491.58844,1197.5934L412.41284,1197.5936C404.0083,1197.5936,396.67963,1204.0702,396.42755,1212.4707C396.16675,1221.1632,403.13586,1228.2917,411.7691,1228.2917L491.58844,1228.2915C492.7461,1228.2915,493.68445,1227.3533,493.68445,1226.1954L493.68445,1226.1941C493.68445,1225.0366,492.7461,1224.0985,491.58844,1224.0985L411.77032,1224.0989 Z"/>
</g>
<g style="fill:rgb(235,240,243); fill-opacity:1.0; stroke-linejoin: miter">
<path d="M400.66864,1211.8268C400.01917,1218.4768,405.25104,1224.0986,411.77032,1224.0984L491.19067,1224.0985C487.72913,1216.6605,487.72913,1209.223,491.19067,1201.7852L412.26776,1201.7856C406.44427,1201.7856,401.2342,1206.0312,400.66864,1211.8268 Z"/>
</g>
<g style="fill:rgb(225,230,233); fill-opacity:1.0; stroke-linejoin: miter">
<path d="M407.51715,1206.8751L489.38556,1206.875C489.4602,1206.5798,489.55756,1206.2854,489.64282,1205.9908L407.51715,1205.9913L407.51715,1206.8751 Z"/>
</g>
<g style="fill:rgb(225,230,233); fill-opacity:1.0; stroke-linejoin: miter">
<path d="M407.51715,1210.1288L488.76068,1210.1288C488.79572,1209.8336,488.86993,1209.5386,488.91528,1209.2443L407.51715,1209.2448L407.51715,1210.1288 Z"/>
</g>
<g style="fill:rgb(225,230,233); fill-opacity:1.0; stroke-linejoin: miter">
<path d="M407.51715,1213.3839L488.62,1213.3839C488.61426,1213.0889,488.61426,1212.794,488.62,1212.4996L407.51715,1212.5001L407.51715,1213.3839 Z"/>
</g>
<g style="fill:rgb(225,230,233); fill-opacity:1.0; stroke-linejoin: miter">
<path d="M407.51715,1216.6395L488.91528,1216.6394C488.86993,1216.3442,488.79572,1216.0492,488.76068,1215.7549L407.51715,1215.7555L407.51715,1216.6395 Z"/>
</g>
<g style="fill:rgb(225,230,233); fill-opacity:1.0; stroke-linejoin: miter">
<path d="M407.51715,1219.8932L489.64288,1219.8931C489.55737,1219.5979,489.46027,1219.303,489.38556,1219.0088L407.51715,1219.0094L407.51715,1219.8932 Z"/>
</g>
<g style="fill:rgb(129,198,101); fill-opacity:1.0; stroke-linejoin: miter">
<path d="M482.4486,1254.8405C488.9679,1254.8405,494.1996,1249.219,493.55035,1242.5687C492.98474,1236.7733,487.7743,1232.5275,481.9513,1232.5272L402.63043,1232.5275C401.47284,1232.5272,400.5345,1231.589,400.5345,1230.4315L400.5345,1230.4318C400.5345,1229.2739,401.47284,1228.3356,402.63043,1228.3356L481.8061,1228.3359C490.21063,1228.3359,497.5393,1234.8123,497.79138,1243.2128C498.0522,1251.9053,491.08313,1259.034,482.44977,1259.0338L402.63043,1259.0338C401.47284,1259.0338,400.5345,1258.0953,400.5345,1256.9379L400.5345,1256.9364C400.5345,1255.7792,401.47284,1254.8408,402.63043,1254.8408L482.4486,1254.841 Z"/>
</g>
<g style="fill:rgb(235,240,243); fill-opacity:1.0; stroke-linejoin: miter">
<path d="M493.55035,1242.569C494.19977,1249.219,488.9679,1254.8407,482.4486,1254.8405L403.0282,1254.8408C406.48975,1247.4028,406.4898,1239.9653,403.0282,1232.5275L481.95117,1232.5278C487.77466,1232.5278,492.98474,1236.7733,493.55035,1242.569 Z"/>
</g>
<g style="fill:rgb(225,230,233); fill-opacity:1.0; stroke-linejoin: miter">
<path d="M486.70178,1237.6173L404.8333,1237.6174C404.75867,1237.3221,404.66132,1237.0276,404.5761,1236.733L486.70178,1236.7334L486.70178,1237.6173 Z"/>
</g>
<g style="fill:rgb(225,230,233); fill-opacity:1.0; stroke-linejoin: miter">
<path d="M486.70172,1240.871L405.45825,1240.871C405.42322,1240.5758,405.349,1240.281,405.3037,1239.9866L486.70172,1239.9868L486.70172,1240.871 Z"/>
</g>
<g style="fill:rgb(225,230,233); fill-opacity:1.0; stroke-linejoin: miter">
<path d="M486.70172,1244.1262L405.59888,1244.1263C405.60468,1243.8312,405.60468,1243.5365,405.59888,1243.242L486.70172,1243.2423L486.70172,1244.1262 Z"/>
</g>
<g style="fill:rgb(225,230,233); fill-opacity:1.0; stroke-linejoin: miter">
<path d="M486.70172,1247.3817L405.3037,1247.3816C405.349,1247.0867,405.42322,1246.7915,405.45825,1246.4972L486.70172,1246.4976L486.70172,1247.3817 Z"/>
</g>
<g style="fill:rgb(225,230,233); fill-opacity:1.0; stroke-linejoin: miter">
<path d="M486.70172,1250.6355L404.576,1250.6355C404.66156,1250.3402,404.75867,1250.0455,404.8333,1249.7511L486.70172,1249.7515L486.70172,1250.6355 Z"/>
</g>
<g style="fill:rgb(0,0,0); fill-opacity:1.0; stroke-linejoin: miter">
<path d="M490.6684,1184.5724Q489.25146,1188.7518,489.26312,1192.927Q489.3233,1196.8317,490.8064,1197.5121Q491.42645,1197.8431,492.45648,1197.883Q499.8136,1197.6016,503.75446,1198.1272Q505.1371,1198.3091,505.97363,1198.5834Q506.35864,1198.6672,508.28436,1199.5635L509.1454,1199.8539Q509.99463,1200.0936,511.22394,1200.2021Q514.8505,1200.4678,518.8458,1199.929Q526.37213,1198.9843,523.2076,1194.6604Q522.3317,1193.5328,521.2436,1193.1697Q520.81934,1193.0176,520.1832,1192.9329Q517.078,1192.7793,516.3034,1192.5165Q514.77954,1192.1327,513.4391,1191.2283Q510.8949,1189.6584,505.104,1182.5021L490.7348,1184.5629"/>
</g>
<g style="fill:rgb(0,0,0); fill-opacity:1.0; stroke-linejoin: miter">
<path d="M449.07202,1189.0012L435.49225,1191.9906Q434.99664,1198.4258,435.52136,1201.649Q436.53186,1208.3577,440.75494,1209.496Q443.14636,1210.3558,449.59583,1209.998Q454.5559,1209.4939,455.94708,1208.1826Q456.8949,1207.3503,456.34467,1205.9039Q456.07355,1205.1487,455.41437,1204.1116Q452.44275,1199.8646,452.27264,1199.4661Q451.5567,1198.2778,451.0404,1197.0807Q449.85187,1194.4562,449.0728,1189.0063"/>
</g>
<g style="fill:rgb(0,0,0); fill-opacity:1.0; stroke-linejoin: miter">
<path d="M434.91718,1113.1158Q413.34418,1112.5898,412.96613,1127.9371Q413.1062,1133.2349,416.4917,1135.6931Q417.11517,1136.1531,418.29462,1136.5074Q423.23553,1137.2571,430.42792,1139.4777Q430.0913,1146.254,430.62927,1151.0973Q434.4632,1174.3856,434.08197,1175.4141Q434.48718,1181.1567,433.20044,1191.077L435.91125,1196.0475L451.8719,1194.632Q452.60376,1191.5057,452.39795,1185.42Q449.25568,1157.4401,449.08636,1141.2213Q484.97644,1139.7258,488.3479,1139.1882Q487.47925,1149.9001,487.78583,1153.8898Q487.71838,1156.0731,489.85156,1170.2972L490.6836,1185.5045L494.34308,1188.7657L508.1375,1185.4596Q508.6521,1182.0813,508.5473,1172.8647Q508.5819,1163.9579,507.1908,1153.6329L508.01196,1137.9149Q508.1233,1134.0127,507.80615,1130.7891Q507.0475,1122.7378,503.0611,1119.6262Q499.6527,1116.9227,493.19244,1116.3607Q491.3062,1116.178,488.66223,1116.1466Q476.02612,1116.4471,472.95178,1116.1484Q467.12164,1115.8479,458.94415,1114.4374L453.85876,1114.0188Q441.74133,1113.0195,434.99524,1113.1147"/>
</g>
<g style="fill:rgb(255,183,146); fill-opacity:1.0; stroke-linejoin: miter">
<path d="M506.2621,1106.9138L489.95264,1104.4539L486.65723,1094.6501L472.6021,1097.5098Q473.47162,1101.466,475.94928,1107.5986Q478.71826,1114.3558,480.38812,1116.7173Q482.22058,1119.5776,486.4071,1119.9637Q491.21423,1120.551,494.66656,1117.9999Q495.3202,1119.0913,497.02142,1119.3075Q500.1416,1119.6628,502.03052,1119.1337Q502.40802,1118.9952,502.67047,1118.7637L503.5343,1117.8644Q505.11487,1116.5656,505.41296,1116.2031Q506.18597,1115.4113,506.56757,1114.2811Q506.7375,1113.7949,506.88544,1113.0979L507.59412,1109.4403Q507.62073,1108.7627,506.2802,1106.9393"/>
</g>
<g style="fill:rgb(255,255,255); fill-opacity:1.0; stroke-linejoin: miter">
<path d="M456.0171,1055.6394Q452.4682,1055.5048,448.9666,1061.1887Q442.16278,1061.3335,434.4897,1065.5245Q429.6353,1068.4141,426.97852,1072.9326Q425.44067,1075.5527,424.21082,1079.5314Q423.59222,1081.5331,423.02972,1083.8224Q420.06982,1097.0828,419.45374,1098.7284Q418.73163,1101.5792,414.1961,1113.7587Q413.5003,1115.7959,413.12732,1117.3103Q411.6756,1122.7771,413.1128,1129.0615L414.14014,1123.6765Q415.19525,1121.8695,415.97534,1120.9083Q416.88068,1119.7654,418.081,1118.9015Q419.25653,1118.0143,422.15393,1116.5244Q424.20642,1114.7102,424.8416,1114.5061Q425.10858,1114.3035,426.5699,1114.3184Q433.17548,1114.5435,460.99573,1114.8344L471.7011,1095.384L472.534,1097.9008Q473.38733,1098.5331,474.42633,1098.5569Q476.68933,1098.8317,487.78333,1096.5552Q486.29034,1091.261,485.96747,1088.8783Q485.71735,1088.1699,485.71198,1082.3635L485.28943,1079.7002Q484.17218,1075.3759,482.00995,1072.5222Q481.15106,1071.3922,479.81433,1070.385Q478.59045,1069.4493,475.85864,1068.1438Q467.35675,1061.0874,463.6797,1058.7612Q458.9265,1055.6216,456.12244,1055.639 M413.11694,1129.105Q413.06213,1129.364,413.12067,1129.1489"/>
</g>
<g style="fill:rgb(0,0,0); fill-opacity:1.0; stroke-linejoin: miter">
<path d="M468.8089,1033.9025Q463.84375,1033.9236,461.03394,1037.2711Q458.06555,1040.9377,456.48035,1048.5671Q455.56488,1053.3159,456.0667,1056.8125L464.06604,1058.2246Q479.65918,1053.5161,483.3048,1052.477Q487.57867,1051.2438,487.51105,1051.4783Q486.09662,1049.7092,485.47546,1048.3906L483.50616,1043.3141Q482.9961,1042.0859,482.43964,1041.0892Q481.31842,1039.0707,479.82562,1037.6644Q475.8404,1034.0126,468.86664,1033.9019"/>
</g>
<g style="fill:rgb(255,183,146); fill-opacity:1.0; stroke-linejoin: miter">
<path d="M427.6441,1094.573L426.70062,1094.6957Q426.57202,1099.0496,427.33734,1102.2571Q427.66382,1103.6328,428.31464,1105.2494Q431.40686,1111.7319,432.64935,1115.4888Q433.67383,1118.44,440.17078,1118.7103Q447.03717,1118.9915,448.0431,1118.819Q450.39465,1118.6268,452.5437,1117.7533Q456.57367,1116.3517,468.93384,1107.3619L473.4405,1108.1549Q474.96906,1108.3712,476.3459,1108.4177Q481.5545,1108.5839,483.33124,1107.9467Q484.62836,1107.5546,485.9461,1106.2692Q486.91876,1107.0378,487.72815,1105.926Q487.34137,1104.3607,485.4052,1101.3314Q486.54492,1101.4978,488.7885,1101.5516Q488.85883,1101.7484,489.38,1102.0077L491.91187,1103.158L494.18683,1101.2233Q490.04987,1098.2623,488.41748,1097.6243Q487.84247,1097.374,487.09235,1097.1603Q484.52124,1096.6353,483.50793,1096.2451Q482.88898,1096.1066,482.40283,1096.141Q481.84613,1096.1609,480.96698,1096.3903L476.552,1097.7402L471.03473,1099.096L460.44952,1102.398Q457.57214,1103.2505,455.56537,1103.6775Q450.76575,1104.7654,445.27185,1104.1194Q445.84137,1100.7957,445.55585,1099.5416L445.12567,1097.3478Q444.75238,1096.9675,444.28174,1096.7129Q443.55084,1096.1367,437.72388,1095.2163L427.7674,1094.5808"/>
</g>
<g style="fill:rgb(255,183,146); fill-opacity:1.0; stroke-linejoin: miter">
<path d="M470.58868,1049.0059L468.5299,1053.5272L465.464,1053.8076L463.51166,1056.4622L462.2417,1055.4697Q462.13885,1051.8794,461.20917,1050.9524Q459.81616,1049.5676,458.38348,1050.4271Q457.2777,1051.1301,457.2198,1055.5966L456.14062,1055.7203Q455.3927,1059.2673,453.53333,1061.742Q455.4655,1066.2599,456.64502,1067.9845Q457.71136,1069.6897,460.31128,1072.0657L460.39648,1083.4055L465.7644,1073.0093Q468.575,1074.3002,470.3802,1074.7537Q471.76318,1075.0381,472.32214,1074.307Q472.95197,1073.6445,473.40692,1071.0165Q474.104,1070.6355,474.18964,1070.2638Q474.27917,1070.1407,474.40912,1068.9667Q476.055,1068.6875,476.15338,1067.2828Q477.8117,1067.4025,478.0703,1067.0992Q478.27264,1067.0432,478.5551,1065.968Q479.3109,1065.4817,479.38745,1065.2496Q479.85138,1064.7565,479.9555,1060.3687Q481.99078,1059.6151,482.221,1058.4445Q482.65747,1055.1887,483.7528,1051.3304Q481.76764,1051.6144,479.43884,1051.1794Q477.33282,1050.8395,470.62402,1049.0153"/>
</g>
<g style="fill:rgb(255,71,0); fill-opacity:0.11372549; stroke-linejoin: miter">
<path d="M461.27655,1070.6589L460.2823,1083.5271L465.73492,1072.9899L461.28076,1070.6611"/>
</g>
<g style="fill:rgb(0,0,0); fill-opacity:0.16078432; stroke-linejoin: miter">
<path d="M457.82806,1070.9176Q456.8228,1070.9298,453.78156,1075.9753L458.68634,1076.0988Q458.71094,1073.4025,458.56323,1072.3561Q458.4073,1071.1606,458.0111,1070.9667L458.0086,1070.9653Q457.92847,1070.9163,457.82806,1070.9176L457.82806,1070.9178 Z M467.50568,1075.083Q467.2127,1075.0865,466.72723,1075.632Q466.15936,1076.2513,464.93457,1078.1647L468.29834,1078.3151Q468.1988,1076.6603,468.06366,1076.0215Q467.9159,1075.279,467.66223,1075.128L467.6584,1075.1257Q467.59003,1075.0819,467.50568,1075.083L467.50568,1075.0833 Z M476.57574,1086.0822L474.3839,1091.0542L471.69733,1095.3119Q473.5584,1093.1377,474.54865,1091.2644Q475.4496,1089.6145,476.57104,1086.0966L476.57574,1086.0822L476.57574,1086.0824 Z M439.41644,1072.4618L439.41644,1072.462Q440.9181,1074.9806,441.6189,1076.708Q442.41058,1078.6035,443.00024,1081.1031Q443.58063,1083.5461,444.05627,1086.9795Q444.4992,1090.0886,445.22778,1097.0717Q445.04944,1091.1564,444.6493,1087.8309Q444.29102,1084.5531,443.05103,1078.0922L439.42084,1072.4677L439.41687,1072.4618L439.41644,1072.4618 Z M450.6369,1132.0795Q450.8828,1134.6224,449.17938,1141.2032L462.03442,1140.4586L489.15436,1139.1667L450.6855,1132.0883L450.6375,1132.0795L450.6369,1132.0795 Z"/>
</g>
<g style="fill:rgb(0,0,0); fill-opacity:1.0; stroke-linejoin: miter">
<path d="M520.94574,1074.8341L521.66644,1092.5925L498.299,1113.4901Q498.11932,1113.678,498.17566,1113.5461L500.13763,1095.1785L520.92474,1074.8546"/>
</g>
<g style="fill:rgb(255,255,255); fill-opacity:1.0; stroke-linejoin: miter">
<path d="M520.0998,1076.3512L520.7653,1092.7496L499.18787,1112.0463Q499.02185,1112.2195,499.07404,1112.098L500.88562,1095.1372L520.0804,1076.3701"/>
</g>
<g style="fill:rgb(0,0,0); fill-opacity:1.0; stroke-linejoin: miter">
<path d="M516.86914,1096.4452L499.12787,1095.3809L477.78198,1118.3396Q477.59082,1118.5157,477.72345,1118.4618L496.12622,1116.8556L516.8482,1096.4658"/>
</g>
<g style="fill:rgb(255,183,146); fill-opacity:1.0; stroke-linejoin: miter">
<path d="M507.3144,1105.61L505.2096,1107.6561Q506.1505,1107.4517,506.54877,1107.3032Q507.01422,1107.1355,507.22247,1106.9312Q507.6507,1106.5209,507.31543,1105.6129"/>
</g>
<g style="fill:rgb(255,183,146); fill-opacity:1.0; stroke-linejoin: miter">
<path d="M503.46167,1110.4838Q497.6211,1109.4191,497.32306,1109.4866Q495.94202,1109.4642,495.42804,1110.1111Q495.11407,1110.5452,495.18927,1111.1309Q495.27966,1111.6675,495.70282,1111.9205Q495.92743,1112.0566,496.3415,1112.1456Q496.5042,1112.1808,496.73987,1112.2157Q497.85663,1112.3585,498.02142,1112.3945Q498.4278,1112.4661,498.825,1112.5837Q499.64258,1112.8135,501.14258,1113.5162L503.4591,1110.4872"/>
</g>
<g style="fill:rgb(255,183,146); fill-opacity:1.0; stroke-linejoin: miter">
<path d="M500.90668,1113.5201Q496.12085,1111.7169,495.11487,1111.541Q493.96222,1111.2375,493.20203,1111.8782Q492.26044,1112.5934,493.12537,1113.9602Q493.50134,1114.5894,494.07617,1115.1414Q494.66034,1115.7189,496.4444,1117.2168L500.89673,1113.5283"/>
</g>
<g style="fill:rgb(255,183,146); fill-opacity:1.0; stroke-linejoin: miter">
<path d="M506.22925,1107.2048Q503.9934,1106.7256,502.77747,1106.8049Q501.40662,1106.9016,500.7495,1107.5448Q500.38495,1107.9205,500.37463,1108.3655Q500.37256,1108.8029,500.73224,1109.123Q501.02277,1109.3818,501.67383,1109.5729Q502.21362,1109.7383,503.51532,1109.9392L506.22382,1107.2103"/>
</g>
</g>
</svg>