<svg id="Laag_1" data-name="Laag 1" xmlns="http://www.w3.org/2000/svg" xmlns:xlink="http://www.w3.org/1999/xlink" viewBox="0 0 200 200" width="200" height="200"><defs><style>.cls-1{fill:none;}.cls-2{fill:#989898;}.cls-3{fill:#ff8c00;}.cls-4{fill:#7c7c7c;}.cls-5{fill:#494949;}.cls-6{fill:#666;}.cls-7{fill:#595959;}.cls-8{fill:#ffd38f;}.cls-9{fill:#ffbebb;}.cls-10{fill:#922300;}.cls-11{fill:#fff;}.cls-12{fill:#fa6500;}.cls-13{fill:#004472;}.cls-14{clip-path:url(#clip-path);}.cls-15{fill:#ff8780;}.cls-16{fill:#cf4000;}.cls-17{fill:#ffd500;}</style><clipPath id="clip-path"><path class="cls-1" d="M130,137.53c-.31-6.39-.8-10.46-.8-12.49a11.2,11.2,0,0,1,.92-4.8h-26L98.29,132.1a24.71,24.71,0,0,0-6.7-4h0l.6,3.63a8.19,8.19,0,0,1-.9,5.27,6.29,6.29,0,0,1-5.92,3.48c-4.56,0-8.77-5.38-14.83-10-6.06,4.58-10.27,10-14.82,10h0a6.24,6.24,0,0,1-6.09-7.58l1.24-5.71A34.3,34.3,0,0,0,33.5,138a71.06,71.06,0,0,0,67.53,49,70.35,70.35,0,0,0,9.9-.69c15.36-6.33,19.31-21.64,19.31-38.57C130.24,143.79,130.14,140.42,130,137.53Z"/></clipPath></defs><path class="cls-2" d="M193.45,91.42v14.9a6.8,6.8,0,0,1-13.6,0V91.42a6.8,6.8,0,1,1,13.6,0Z"/><path class="cls-3" d="M179.45,84.62h7.2a6.81,6.81,0,0,0-6.8,6.8v14.9a6.8,6.8,0,0,0,6.8,6.79h-7.5a6.8,6.8,0,0,1-6.8-6.79V91.42a6.81,6.81,0,0,1,6.8-6.8Z"/><path class="cls-4" d="M171.94,84.62h7.21a6.81,6.81,0,0,0-6.8,6.8v14.9a6.8,6.8,0,0,0,6.8,6.79h-7.21a6.69,6.69,0,0,1-2.86-.63,6.82,6.82,0,0,1-3.93-6.16V91.42a6.87,6.87,0,0,1,.36-2.18,6.78,6.78,0,0,1,3.57-4A6.69,6.69,0,0,1,171.94,84.62Z"/><path class="cls-5" d="M172,113.11q.06,1.4.06,2.79a70.69,70.69,0,0,1-13.05,41l-8.15-26.36H152v-5.72a5.28,5.28,0,0,0,4.85-5.27V118h3.18a10.1,10.1,0,0,0,9-5.52,6.69,6.69,0,0,0,2.86.63Z"/><path class="cls-2" d="M169.08,85.26a6.78,6.78,0,0,0-3.57,4h-5.88v19.25h5.88a6.8,6.8,0,0,0,3.57,4,10.1,10.1,0,0,1-9,5.52H145.32a10.11,10.11,0,0,0,10.11-10.11v-18a10.11,10.11,0,0,0-10.11-10.11h14.75a10.39,10.39,0,0,1,2.24.25A10.11,10.11,0,0,1,169.08,85.26Z"/><path class="cls-6" d="M165.5,89.24h0a6.87,6.87,0,0,0-.36,2.18v14.9a6.76,6.76,0,0,0,.36,2.17h-5.88V89.24Z"/><path class="cls-5" d="M160.11,76.48c.77,1.14,1.5,2.31,2.2,3.5a10.39,10.39,0,0,0-2.24-.25h-4.14V76.48Z"/><path class="cls-2" d="M150.85,130.58,159,156.94a70.18,70.18,0,0,1-6.75,8.15L150,157.7l-4.47-14.46-3.91-12.66Z"/><path class="cls-2" d="M156.89,118v1.59a5.28,5.28,0,0,1-4.85,5.27H140a4.18,4.18,0,0,1-.5,0,5.29,5.29,0,0,1-4.79-5.26V118h22.15Z"/><path class="cls-4" d="M155.93,76.48v3.25H143.1V61.42h12.83v3.25h-3a5.91,5.91,0,0,0,0,11.81Z"/><path class="cls-2" d="M174.49,64.67H152.9a5.91,5.91,0,0,0,0,11.81h21.59a5.91,5.91,0,0,0,0-11.81Z"/><path class="cls-5" d="M150,157.7l2.28,7.39c-.74.78-1.5,1.53-2.28,2.27Z"/><path class="cls-7" d="M150,157.7v9.66a71.25,71.25,0,0,1-8.7,7.07h0V156.94l4.23-13.7Z"/><path class="cls-4" d="M141.59,130.58l3.91,12.66-4.23,13.7-6.66,21.55a69.38,69.38,0,0,1-10.7,4.66l16.25-52.57Z"/><path class="cls-8" d="M141.71,106a4.11,4.11,0,0,1,1.54,3.45c0,6.11-7.48,4.76-11.52,8.58h0a7.5,7.5,0,0,0-1.6,2.24h-26l5.67-11.48a32.6,32.6,0,0,1,11.66-14.2c4.45-3.06,9.12-4.64,12.59-4.64,4.13,0,7.41,1.93,7.41,5.35a7.13,7.13,0,0,1-.63,2.78,4.47,4.47,0,0,1,2.34,4.1v0A6,6,0,0,1,141.71,106Z"/><path class="cls-2" d="M143.1,61.42V79.73h-8a4.37,4.37,0,0,1-4.37-4.37V65.79a4.37,4.37,0,0,1,4.37-4.37Z"/><path class="cls-5" d="M141.27,174.42h0a69.17,69.17,0,0,1-6.66,4.06l6.66-21.55Z"/><path class="cls-5" d="M130,137.53c-.31-6.39-.8-10.46-.8-12.49a11.2,11.2,0,0,1,.92-4.8,7.5,7.5,0,0,1,1.6-2.24h3v1.59a5.29,5.29,0,0,0,4.79,5.26h0v5.73h.63l-16.25,52.57a69.76,69.76,0,0,1-13,3.08c15.36-6.33,19.31-21.64,19.31-38.57C130.24,143.79,130.14,140.42,130,137.53Z"/><path class="cls-6" d="M139.53,130.58v-5.73h0a4.18,4.18,0,0,0,.5,0h12v5.72H139.53Z"/><path class="cls-9" d="M130,137.53c-.31-6.39-.8-10.46-.8-12.49a11.2,11.2,0,0,1,.92-4.8h-26L98.29,132.1a24.71,24.71,0,0,0-6.7-4h0l.6,3.63a8.19,8.19,0,0,1-.9,5.27,6.29,6.29,0,0,1-5.92,3.48c-4.56,0-8.77-5.38-14.83-10-6.06,4.58-10.27,10-14.82,10h0a6.24,6.24,0,0,1-6.09-7.58l1.24-5.71A34.3,34.3,0,0,0,33.5,138a71.06,71.06,0,0,0,67.53,49,70.35,70.35,0,0,0,9.9-.69c15.36-6.33,19.31-21.64,19.31-38.57C130.24,143.79,130.14,140.42,130,137.53Z"/><path class="cls-10" d="M106,61.12a26.15,26.15,0,0,1,.5,5.18,34.46,34.46,0,0,1-1.85,10.83h-.87a6.71,6.71,0,0,1-5.15-6.71C98.65,66.08,102.21,61.58,106,61.12Z"/><path class="cls-11" d="M105.64,59.56c.15.52.27,1,.38,1.56-3.81.46-7.37,5-7.37,9.3a6.71,6.71,0,0,0,5.15,6.71h-1.61c-6.76,0-9.65-4.37-9.65-8.09,0-5,4.9-9.75,10.75-9.75A10.58,10.58,0,0,1,105.64,59.56Z"/><path class="cls-5" d="M103.44,44.92a8.11,8.11,0,0,1,.13,1.47,12,12,0,0,1-1.5,6.08h0a18,18,0,0,1,1.61,2.34,19.6,19.6,0,0,1,2,4.75c.15.52.27,1,.38,1.56a26.15,26.15,0,0,1,.5,5.18,34.46,34.46,0,0,1-1.85,10.83l-.06.18h0c-.23.68-.48,1.36-.75,2h0c3.67,0,5.44,2.06,5.44,4.19s-1.57,4.09-4.64,4.6c.13,1.12.27,2.26.42,3.39H98.45A10.31,10.31,0,0,0,105.7,96a65,65,0,0,1,.58,8c0,12.8-6.23,18.31-15.57,18.71h0l.27,1.63.6,3.69h0a24.71,24.71,0,0,1,6.7,4l5.85-11.86,5.67-11.48a32.6,32.6,0,0,1,11.66-14.2V79.73h13.61a4.37,4.37,0,0,1-4.37-4.37V65.79a4.37,4.37,0,0,1,4.37-4.37h11.51A70.76,70.76,0,0,0,103.44,44.92Z"/><path class="cls-12" d="M34,92.39A41,41,0,0,0,40.9,107a56.56,56.56,0,0,0,5.64,6.6,70.79,70.79,0,0,0,6,5.42h0l.06,0c6.6-3.31,12.68-7.86,14.59-14.81-8.1-4-10.54-9.85-10.54-14.8,0-6.49,4.31-10.14,9.12-10.14,3.53,0,6,1.94,7.8,4.67a65.07,65.07,0,0,0,3.25-11.14c4.83-2.23,8.82-6.26,8.82-12a15.16,15.16,0,0,0-2.47-8.2h18.88a12,12,0,0,0,1.5-6.08,8.11,8.11,0,0,0-.13-1.47c-.84-4.65-5.56-8.82-11.86-8.82C82.05,36.1,72.11,44,64,44a18.5,18.5,0,0,1-5.39-.73,18.39,18.39,0,0,0,1,4.16A17,17,0,0,0,45.46,58.78C36.94,63,32.92,72.43,32.92,82.91a43.86,43.86,0,0,0,.48,6.42q.24,1.56.6,3.06"/><path class="cls-12" d="M92.18,131.68a8.19,8.19,0,0,1-.9,5.27,6.29,6.29,0,0,1-5.92,3.48c-4.56,0-8.77-5.38-14.83-10,4.48-3.39,10-6.34,17.37-6.34a21.29,21.29,0,0,1,3.08.23l.6,3.69Z"/><path class="cls-12" d="M70.53,130.47c-6.06,4.58-10.27,10-14.82,10h0a6.24,6.24,0,0,1-6.09-7.58l1.24-5.71.64-2.94c.56,0,1.13-.07,1.69-.07C60.55,124.13,66,127.08,70.53,130.47Z"/><path class="cls-13" d="M52.62,118.94l0,.06,0,0Z"/><path class="cls-5" d="M52.6,119l-1.13,5.2-.64,2.94A34.3,34.3,0,0,0,33.5,138,71.36,71.36,0,0,1,34,92.39,41,41,0,0,0,40.9,107a56.56,56.56,0,0,0,5.64,6.6,70.79,70.79,0,0,0,6,5.42h0Z"/><g class="cls-14"><rect class="cls-15" x="45.46" y="163.68" width="14.27" height="15.15"/><rect class="cls-15" x="45.46" y="134.26" width="14.27" height="15.15"/><rect class="cls-15" x="104.3" y="134.26" width="14.27" height="15.15"/><rect class="cls-15" x="104.3" y="163.68" width="14.27" height="15.15"/><rect class="cls-15" x="74.88" y="134.26" width="14.27" height="15.15"/><rect class="cls-15" x="74.88" y="163.68" width="14.27" height="15.15"/><rect class="cls-16" x="59.73" y="119.99" width="15.15" height="14.27"/><rect class="cls-12" x="89.15" y="119.99" width="15.15" height="14.27"/><rect class="cls-12" x="30.31" y="119.99" width="15.15" height="14.27"/><rect class="cls-12" x="118.57" y="119.99" width="17.88" height="14.27"/><rect class="cls-16" x="45.46" y="119.99" width="14.27" height="14.27"/><rect class="cls-16" x="104.3" y="119.99" width="14.27" height="14.27"/><rect class="cls-11" x="74.88" y="119.99" width="14.27" height="14.27"/><rect class="cls-12" x="118.57" y="149.41" width="17.88" height="14.27"/><rect class="cls-12" x="30.31" y="149.41" width="15.15" height="14.27"/><rect class="cls-12" x="59.73" y="149.41" width="15.15" height="14.27"/><rect class="cls-12" x="89.15" y="149.41" width="15.15" height="14.27"/><rect class="cls-16" x="45.46" y="149.41" width="14.27" height="14.27"/><rect class="cls-16" x="104.3" y="149.41" width="14.27" height="14.27"/><rect class="cls-16" x="74.88" y="149.41" width="14.27" height="14.27"/><rect class="cls-12" x="89.15" y="178.83" width="15.15" height="14.27"/><rect class="cls-12" x="59.73" y="178.83" width="15.15" height="14.27"/><rect class="cls-16" x="104.3" y="178.83" width="14.27" height="14.27"/><rect class="cls-16" x="74.88" y="178.83" width="14.27" height="14.27"/></g><path class="cls-5" d="M82.71,174.27a.67.67,0,0,1-.48-.2C72.15,164,64.93,158.33,48.81,151.55a.68.68,0,0,1,.53-1.26c15.9,6.68,23.26,12.28,33.05,22q.21-.66.42-1.38c3.13-10.27,5.57-21.82,14.29-39.7a.68.68,0,0,1,1.23.6c-8.67,17.78-11.09,29.27-14.21,39.5-.26.87-.51,1.7-.75,2.47a.7.7,0,0,1-.49.47Z"/><path class="cls-4" d="M144.05,112.51l-.13,0a.69.69,0,0,1-.54-.81,8.25,8.25,0,0,0,.16-1.06c.41-4.87-3.86-5.61-5.18-5.72-4.55-.38-8.39,2.24-9.69,4.9a.69.69,0,1,1-1.24-.6c2-4.12,7.19-6,11-5.67,4.31.36,6.77,3.13,6.42,7.21a11.15,11.15,0,0,1-.17,1.22A.7.7,0,0,1,144.05,112.51Z"/><path class="cls-4" d="M146.25,106a.68.68,0,0,1-.67-.54c-1-4.77-2-7.08-6.6-7.72-3.91-.55-8.47,1.18-10.6,4a.68.68,0,0,1-1,.14.69.69,0,0,1-.13-1c2.4-3.2,7.51-5.16,11.88-4.55,5.67.78,6.79,4.14,7.75,8.8a.68.68,0,0,1-.53.81Z"/><path class="cls-3" d="M81.88,69.33a7.79,7.79,0,0,0-6.21-2.76c-1.69,0-3.46.29-5.13.29-4.67,0-6.21-2.58-6.21-7.18,0-.52,0-1,0-1.55,0-3.66-.93-6.44-5.2-6.44-2.27,0-4.63.94-7,.94a6.32,6.32,0,0,1-2.53-.46,16.1,16.1,0,0,0-4.2,6.61C37.77,62.59,33.75,70.64,33,79.87a25.55,25.55,0,0,1,5.17-1C47,78.85,39.4,95.46,52,95.46c1.88,0,3.88-.31,5.79-.41a14.65,14.65,0,0,1-1.16-5.72c0-6.49,4.31-10.14,9.12-10.14,3.53,0,6,1.94,7.8,4.67a65.07,65.07,0,0,0,3.25-11.14A18.37,18.37,0,0,0,81.88,69.33Z"/><path class="cls-12" d="M49.16,85.37h-.08a.69.69,0,0,1-.61-.76,5.53,5.53,0,0,0,0-.71c0-2.15-2-10.17-8-10.17a22.78,22.78,0,0,0-6.45,1.37.69.69,0,0,1-.41-1.31,23.51,23.51,0,0,1,6.86-1.43c7.11,0,9.35,9,9.35,11.54a8.12,8.12,0,0,1,0,.86A.69.69,0,0,1,49.16,85.37Z"/><path class="cls-12" d="M75.35,77.92c-8,0-12.1-5.37-15.35-9.68-2.36-3.12-4.39-5.82-7.29-5.82a5.82,5.82,0,0,0-1.08.11.69.69,0,0,1-.26-1.35,7,7,0,0,1,1.34-.13c3.59,0,5.92,3.09,8.38,6.36,3.29,4.36,7,9.3,14.68,9.13a.69.69,0,1,1,0,1.37Z"/><path class="cls-12" d="M59.45,82.49a.7.7,0,0,1-.5-.21,23.32,23.32,0,0,1-3.7-5.53c-1.38-2.62-2.24-4.09-4-4.09a2.47,2.47,0,0,0-.64.09.68.68,0,0,1-.85-.46.68.68,0,0,1,.46-.85,3.68,3.68,0,0,1,1-.16c2.71,0,3.89,2.24,5.26,4.83a21.81,21.81,0,0,0,3.47,5.22.68.68,0,0,1,0,1A.66.66,0,0,1,59.45,82.49Z"/><path class="cls-3" d="M90.05,53.15h-.14a.69.69,0,0,1-.53-.82,8.14,8.14,0,0,0,.2-1.73,6.62,6.62,0,0,0-2.28-5,.69.69,0,0,1,0-1,.68.68,0,0,1,1,0,8,8,0,0,1,2.71,6,9,9,0,0,1-.23,2A.68.68,0,0,1,90.05,53.15Z"/><path class="cls-3" d="M96.85,53.15a.47.47,0,0,1-.17,0,.68.68,0,0,1-.5-.83,8.61,8.61,0,0,0,.27-2.08,5.28,5.28,0,0,0-2-4.36.7.7,0,0,1-.12-1,.68.68,0,0,1,1-.11,6.66,6.66,0,0,1,2.58,5.44,9.84,9.84,0,0,1-.31,2.41A.68.68,0,0,1,96.85,53.15Z"/><path class="cls-8" d="M109.32,83.52c0-2.13-1.77-4.19-5.44-4.19h0c.27-.66.52-1.34.75-2h0l.06-.18h-2.48c-6.76,0-9.65-4.37-9.65-8.09,0-5,4.9-9.75,10.75-9.75a10.58,10.58,0,0,1,2.35.26,19.6,19.6,0,0,0-2-4.75A18,18,0,0,0,102,52.47H83.19a15.16,15.16,0,0,1,2.47,8.2c0,5.79-4,9.82-8.82,12a65.07,65.07,0,0,1-3.25,11.14c-1.84-2.73-4.27-4.67-7.8-4.67-4.81,0-9.12,3.65-9.12,10.14,0,5,2.44,10.81,10.54,14.8-1.91,7-8,11.5-14.59,14.81l0,.06-1.13,5.2c.56,0,1.13-.07,1.69-.07,7.39,0,12.88,3,17.37,6.34,4.48-3.39,10-6.34,17.37-6.34a21.29,21.29,0,0,1,3.08.23l-.27-1.63h0c9.34-.4,15.57-5.91,15.57-18.71a65,65,0,0,0-.58-8,10.31,10.31,0,0,1-7.25-4.52h6.65c-.15-1.13-.29-2.27-.42-3.39C107.75,87.61,109.32,85.53,109.32,83.52Z"/><path class="cls-3" d="M94.67,95.69a.68.68,0,0,1-.62-.4.69.69,0,0,1,.34-.91,4.82,4.82,0,0,0,3.17-4.46,6,6,0,0,0-.46-2.2.67.67,0,0,1,.37-.89.69.69,0,0,1,.9.37,7.24,7.24,0,0,1,.56,2.72,6.2,6.2,0,0,1-4,5.71A.75.75,0,0,1,94.67,95.69Z"/><circle class="cls-3" cx="86.68" cy="84.86" r="1.11"/><circle class="cls-3" cx="92.49" cy="83.31" r="1.11"/><circle class="cls-3" cx="92.34" cy="89.56" r="1.11"/><path class="cls-16" d="M70.84,155.45a.69.69,0,0,1-.69-.69V130.47a.68.68,0,0,1,.69-.68.67.67,0,0,1,.68.68v24.29A.68.68,0,0,1,70.84,155.45Z"/><rect class="cls-12" x="127.64" y="73.07" width="6.28" height="12.56" rx="3.14"/><path class="cls-4" d="M155.43,89.84v18A10.11,10.11,0,0,1,145.32,118H131.73c4-3.82,11.52-2.47,11.52-8.58a4.11,4.11,0,0,0-1.54-3.45,6,6,0,0,0,1.47-3.77v0a4.47,4.47,0,0,0-2.34-4.1,7.13,7.13,0,0,0,.63-2.78c0-3.42-3.28-5.35-7.41-5.35-3.47,0-8.14,1.58-12.59,4.64V79.73h23.85A10.11,10.11,0,0,1,155.43,89.84Z"/><circle class="cls-7" cx="127.94" cy="85.21" r="1.83"/><circle class="cls-3" cx="136.39" cy="85.21" r="1.83"/><path class="cls-17" d="M704.17,2525.27c-5,25.48-10.75,54.37-45.18,69.66-22.38,9.94-40.15,5.05-51.12-.81a64.5,64.5,0,0,1-27.94-30.21c-.42-.95-.81-1.91-1.18-2.88a40.76,40.76,0,1,1-32.69-73.55c-.42-.82-.82-1.65-1.19-2.49a64.44,64.44,0,0,1-3.68-41c3-12.06,11.29-28.53,33.66-38.47,34.44-15.3,59.7-.17,82,13.17,20.62,12.35,38.63,23.12,64.25,14.29l321.16-142.67,36-16,10.63-4.73a8.07,8.07,0,0,1,10.65,4.1l9,20.29a8.07,8.07,0,0,1-4.09,10.65l-6.37,2.82a4.67,4.67,0,0,0,3.79,8.54l5.66-2.51a4.68,4.68,0,0,1,6.17,2.38l3.15,7.1,8.32,18.73a5,5,0,0,1-2.57,6.68l-16.42,7.3a5.05,5.05,0,0,0-2.57,6.68l.71,1.62a5.05,5.05,0,0,1-2.57,6.68l-13,5.76a5.06,5.06,0,0,1-6.68-2.58l-5.51-12.4a4,4,0,0,0-5.25-2l-.33.15a4,4,0,0,0-2,5.23,4.9,4.9,0,0,1-2.49,6.46l-8.25,3.66a5.07,5.07,0,0,1-6.68-2.57l-1.54-3.48-8.61-19.38-.57-1.28a4.68,4.68,0,0,1,2.37-6.17l14.08-6.25a4.67,4.67,0,1,0-3.8-8.53L736.65,2468C712.92,2481.11,708.83,2501.69,704.17,2525.27Zm-166.25,9.87a20.31,20.31,0,1,0,10.31-26.81A20.33,20.33,0,0,0,537.92,2535.14Zm108.41-98.89c-10.49-6.28-20.4-12.21-30.76-15-10.91-2.95-21.21-2-32.42,3-11.9,5.29-19.34,13.61-22.11,24.72a44.26,44.26,0,0,0,2.52,27.74,33.75,33.75,0,0,0,21.21,18.38,31.25,31.25,0,0,0,17.47.44A42.22,42.22,0,0,1,608,2493c7.29-4.61,11.57-9.72,13.09-15.63,1.6-6.25.29-14.19-3.9-23.62a10.23,10.23,0,0,1,18.69-8.3c6.19,13.93,7.83,26,5,37a40.25,40.25,0,0,1-3.34,8.68,40.25,40.25,0,0,1,8.68,3.34c10,5.27,17.9,14.6,24.08,28.52a10.23,10.23,0,1,1-18.69,8.3c-4.18-9.42-9.2-15.72-14.91-18.72-5.4-2.83-12.06-3.09-20.37-.77a42.36,42.36,0,0,1-5.72,2.54,31.27,31.27,0,0,0-11.38,13.26,33.73,33.73,0,0,0-.59,28.06,44.28,44.28,0,0,0,18.89,20.47c10.11,5.4,21.27,5.45,33.17.16,11.21-5,18.82-12,24-22.06,4.87-9.56,7.11-20.89,9.48-32.88,2.68-13.54,5.45-27.55,12.3-40.62a71.81,71.81,0,0,1,22.8-25.89,71.61,71.61,0,0,1-34.49-.44C670.42,2450.68,658.18,2443.34,646.33,2436.25Z"/><path class="cls-17" d="M727,1735.49c-5,25.48-10.75,54.37-45.18,69.66-22.38,9.94-40.15,5-51.12-.81a64.5,64.5,0,0,1-27.94-30.21c-.42-1-.81-1.91-1.18-2.88a40.76,40.76,0,1,1-32.69-73.55c-.42-.82-.81-1.65-1.19-2.49a64.51,64.51,0,0,1-3.68-41c3-12.06,11.29-28.53,33.66-38.47,34.44-15.3,59.7-.17,82,13.17,20.62,12.35,38.63,23.12,64.25,14.29l321.16-142.67,36-16,10.63-4.73a8.07,8.07,0,0,1,10.65,4.1l9,20.29a8.07,8.07,0,0,1-4.09,10.65l-6.37,2.82a4.67,4.67,0,0,0,3.79,8.54l5.66-2.51a4.68,4.68,0,0,1,6.17,2.38l3.15,7.1,8.32,18.73a5.06,5.06,0,0,1-2.57,6.69L1129,1565.9a5.05,5.05,0,0,0-2.57,6.68l.71,1.62a5.05,5.05,0,0,1-2.57,6.68l-13,5.76a5.06,5.06,0,0,1-6.68-2.58l-5.51-12.4a4,4,0,0,0-5.25-2l-.33.15a4,4,0,0,0-2,5.24,4.89,4.89,0,0,1-2.49,6.45l-8.25,3.66a5.07,5.07,0,0,1-6.68-2.57l-1.54-3.48-8.61-19.38-.57-1.28a4.68,4.68,0,0,1,2.37-6.17l14.08-6.25a4.67,4.67,0,1,0-3.8-8.53L759.48,1678.24C735.75,1691.33,731.66,1711.91,727,1735.49Zm-166.25,9.87a20.31,20.31,0,1,0,10.32-26.81A20.33,20.33,0,0,0,560.75,1745.36Zm108.41-98.89c-10.49-6.28-20.4-12.21-30.76-15-10.91-2.94-21.21-2-32.41,3-11.91,5.29-19.35,13.61-22.12,24.72a44.26,44.26,0,0,0,2.52,27.74,33.75,33.75,0,0,0,21.21,18.38,31.25,31.25,0,0,0,17.47.44,42.22,42.22,0,0,1,5.72-2.54c7.29-4.61,11.57-9.72,13.09-15.63,1.6-6.25.29-14.19-3.9-23.61a10.23,10.23,0,0,1,18.69-8.31c6.19,13.93,7.83,26,5,37a39.74,39.74,0,0,1-3.34,8.68,40.25,40.25,0,0,1,8.68,3.34c10,5.27,17.9,14.6,24.08,28.52a10.23,10.23,0,1,1-18.69,8.3c-4.18-9.42-9.2-15.71-14.91-18.72-5.4-2.83-12.06-3.08-20.37-.77a41.14,41.14,0,0,1-5.72,2.54A31.27,31.27,0,0,0,622,1737.77a33.73,33.73,0,0,0-.59,28.06,44.33,44.33,0,0,0,18.89,20.47c10.11,5.4,21.27,5.45,33.17.16,11.21-5,18.82-12,24-22,4.87-9.57,7.11-20.89,9.48-32.89,2.68-13.54,5.45-27.55,12.3-40.61A71.76,71.76,0,0,1,742,1665a71.61,71.61,0,0,1-34.49-.44C693.26,1660.9,681,1653.57,669.16,1646.47Z"/></svg>